#!OML:ASF H:\Pregnant\Project 1\Capture day 1\Session 1\femalepreg.ASF
:FULLY-SPECIFIED
:DEGREES
409
root 7.1932 17.7343 16.6931 -159.502 5.18355 -177.999
lowerback -13.8461 -3.06913 -9.38184
upperback -6.91747 -1.84387 -1.25359
thorax 0.710745 -0.273801 3.69417
lowerneck -20.633 1.88369 7.49665
upperneck 41.2594 3.89381 1.34671
head 19.5809 4.37092 0.707276
rclavicle -5.71506e-016 4.29375e-014
rhumerus -45.8518 -15.2944 -64.896
rradius 30.2476
rwrist -2.98692
rhand -11.0562 -16.0776
rfingers 7.12502
rthumb 14.9663 -45.5168
lclavicle -5.71506e-016 4.29375e-014
lhumerus -39.5565 -13.1326 83.6725
lradius 25.1383
lwrist 35.8995
lhand -26.7078 0.63829
lfingers 7.12502
lthumb -0.137911 30.618
rfemur -29.0263 13.5282 24.3229
rtibia 40.0858
rfoot -18.8961 -11.3327
rtoes -18.3592
lfemur -39.5405 -6.03598 -19.1841
ltibia 29.8532
lfoot -7.78464 5.37366
ltoes -41.1845
410
root 7.19113 17.7323 16.6687 -159.419 4.99217 -177.864
lowerback -13.695 -3.13272 -9.64745
upperback -6.80974 -1.91351 -1.381
thorax 0.755034 -0.313928 3.69941
lowerneck -20.7625 1.85841 7.55623
upperneck 41.2402 3.75859 1.42221
head 19.6006 4.33165 0.704973
rclavicle -3.54784e-014 1.74931e-014
rhumerus -46.0215 -15.469 -64.7393
rradius 29.5697
rwrist -2.52661
rhand -10.5614 -16.0539
rfingers 7.12502
rthumb 15.443 -45.457
lclavicle -3.54784e-014 1.74931e-014
lhumerus -39.4922 -13.3019 83.5279
lradius 25.5728
lwrist 36.9049
lhand -26.5709 0.241944
lfingers 7.12502
lthumb -0.00567772 30.2217
rfemur -29.927 12.9534 24.5647
rtibia 41.6244
rfoot -18.341 -10.7318
rtoes -19.8731
lfemur -39.6844 -6.22705 -18.9816
ltibia 30.0853
lfoot -7.86604 5.54108
ltoes -41.2912
411
root 7.18842 17.7314 16.644 -159.311 4.79717 -177.667
lowerback -13.5859 -3.18992 -9.81963
upperback -6.68928 -1.98312 -1.49319
thorax 0.833894 -0.358921 3.66771
lowerneck -20.9043 1.84515 7.62834
upperneck 41.2269 3.64006 1.48753
head 19.6292 4.2989 0.699784
rclavicle 2.45375e-014 2.70347e-014
rhumerus -46.123 -15.6912 -64.5798
rradius 28.8592
rwrist -1.91162
rhand -10.0415 -16.0451
rfingers 7.12502
rthumb 15.9437 -45.4088
lclavicle 2.45375e-014 2.70347e-014
lhumerus -39.3899 -13.4664 83.3612
lradius 25.9967
lwrist 37.9631
lhand -26.4239 -0.0578488
lfingers 7.12502
lthumb 0.13631 29.9219
rfemur -30.9293 12.38 24.8641
rtibia 43.2642
rfoot -17.6483 -10.039
rtoes -21.2624
lfemur -39.8763 -6.38587 -18.7167
ltibia 30.3651
lfoot -7.97001 5.71306
ltoes -41.3802
412
root 7.18526 17.7318 16.6193 -159.185 4.59909 -177.421
lowerback -13.5011 -3.24426 -9.92036
upperback -6.56471 -2.05649 -1.58575
thorax 0.929694 -0.408713 3.61578
lowerneck -21.0318 1.83755 7.68678
upperneck 41.2145 3.53819 1.5566
head 19.6544 4.27133 0.702126
rclavicle 1.76421e-015 -6.04305e-014
rhumerus -46.1843 -15.9482 -64.3996
rradius 28.1452
rwrist -1.15068
rhand -9.4931 -16.0659
rfingers 7.12502
rthumb 16.4717 -45.3867
lclavicle 1.76421e-015 -6.04305e-014
lhumerus -39.2628 -13.6227 83.187
lradius 26.4018
lwrist 39.0499
lhand -26.3014 -0.267321
lfingers 7.12502
lthumb 0.254609 29.7123
rfemur -32.034 11.8239 25.2041
rtibia 45.0062
rfoot -16.8111 -9.25684
rtoes -22.4296
lfemur -40.0984 -6.513 -18.406
ltibia 30.6755
lfoot -8.09501 5.88416
ltoes -41.4531
413
root 7.1817 17.7334 16.5947 -159.045 4.40035 -177.139
lowerback -13.4192 -3.29685 -9.96847
upperback -6.44888 -2.13491 -1.65813
thorax 1.0178 -0.46131 3.55506
lowerneck -21.1288 1.83178 7.72307
upperneck 41.201 3.45212 1.63479
head 19.67 4.24879 0.715549
rclavicle 3.07868e-014 -1.06549e-013
rhumerus -46.2369 -16.2067 -64.2013
rradius 27.4692
rwrist -0.293993
rhand -8.8945 -16.1368
rfingers 7.12502
rthumb 17.048 -45.4088
lclavicle 3.07868e-014 -1.06549e-013
lhumerus -39.1317 -13.7623 83.013
lradius 26.7801
lwrist 40.1251
lhand -26.2226 -0.414114
lfingers 7.12502
lthumb 0.330724 29.5654
rfemur -33.2466 11.2968 25.5683
rtibia 46.8459
rfoot -15.7982 -8.39943
rtoes -23.3348
lfemur -40.3376 -6.61213 -18.0645
ltibia 30.9974
lfoot -8.23439 6.05338
ltoes -41.5039
414
root 7.17781 17.7359 16.5707 -158.893 4.2081 -176.838
lowerback -13.3237 -3.34473 -9.98525
upperback -6.34906 -2.21362 -1.71302
thorax 1.08118 -0.512576 3.49588
lowerneck -21.2166 1.82895 7.75921
upperneck 41.1972 3.38007 1.70508
head 19.69 4.23196 0.728873
rclavicle 1.78906e-015 3.18055e-015
rhumerus -46.3028 -16.4509 -63.9857
rradius 26.8633
rwrist 0.606858
rhand -8.23326 -16.2052
rfingers 7.12502
rthumb 17.6844 -45.421
lclavicle 1.78906e-015 3.18055e-015
lhumerus -39.0017 -13.9001 82.8528
lradius 27.1249
lwrist 41.1633
lhand -26.2015 -0.51018
lfingers 7.12502
lthumb 0.351152 29.4693
rfemur -34.5732 10.8069 25.9407
rtibia 48.7732
rfoot -14.5878 -7.4945
rtoes -23.9773
lfemur -40.5843 -6.6858 -17.7088
ltibia 31.3117
lfoot -8.3777 6.21911
ltoes -41.5338
415
root 7.17352 17.7389 16.5472 -158.734 4.02683 -176.539
lowerback -13.1997 -3.39104 -9.99452
upperback -6.27707 -2.29482 -1.75197
thorax 1.10026 -0.561139 3.45008
lowerneck -21.2619 1.82443 7.78665
upperneck 41.1976 3.32503 1.7679
head 19.701 4.22175 0.743369
rclavicle -1.82385e-014 -1.59028e-014
rhumerus -46.4039 -16.6505 -63.7534
rradius 26.3473
rwrist 1.50038
rhand -7.51394 -16.2961
rfingers 7.12502
rthumb 18.3765 -45.4481
lclavicle -1.82385e-014 -1.59028e-014
lhumerus -38.8974 -14.0287 82.7172
lradius 27.4326
lwrist 42.1221
lhand -26.2469 -0.562585
lfingers 7.12502
lthumb 0.307283 29.4169
rfemur -36.0104 10.3457 26.3011
rtibia 50.7746
rfoot -13.1561 -6.56393
rtoes -24.3064
lfemur -40.8238 -6.74694 -17.3616
ltibia 31.6023
lfoot -8.515 6.38646
ltoes -41.5488
416
root 7.16897 17.742 16.5248 -158.572 3.85952 -176.256
lowerback -13.0449 -3.43506 -10.0119
upperback -6.22578 -2.37624 -1.77992
thorax 1.08128 -0.606524 3.42162
lowerneck -21.2825 1.8198 7.80431
upperneck 41.1966 3.28279 1.82415
head 19.7044 4.21486 0.758578
rclavicle 2.00276e-014 -3.18055e-014
rhumerus -46.5331 -16.7975 -63.5213
rradius 25.9385
rwrist 2.33561
rhand -6.75575 -16.4202
rfingers 7.12502
rthumb 19.1057 -45.5018
lclavicle 2.00276e-014 -3.18055e-014
lhumerus -38.8052 -14.1616 82.6098
lradius 27.701
lwrist 42.9827
lhand -26.3684 -0.569457
lfingers 7.12502
lthumb 0.189884 29.4102
rfemur -37.5536 9.9192 26.6351
rtibia 52.8344
rfoot -11.4907 -5.64457
rtoes -24.2154
lfemur -41.0488 -6.80257 -17.0366
ltibia 31.8546
lfoot -8.63562 6.55741
ltoes -41.5614
417
root 7.16418 17.7449 16.5034 -158.411 3.70963 -176.005
lowerback -12.867 -3.47764 -10.0484
upperback -6.18649 -2.45669 -1.80153
thorax 1.03774 -0.649162 3.41174
lowerneck -21.2872 1.8147 7.81441
upperneck 41.1914 3.24995 1.86963
head 19.7008 4.2088 0.771136
rclavicle 4.02539e-014 5.88403e-014
rhumerus -46.6794 -16.8926 -63.2991
rradius 25.6378
rwrist 3.08163
rhand -5.97494 -16.5608
rfingers 7.12502
rthumb 19.8564 -45.5664
lclavicle 4.02539e-014 5.88403e-014
lhumerus -38.7075 -14.2992 82.5272
lradius 27.9201
lwrist 43.711
lhand -26.5586 -0.53079
lfingers 7.12502
lthumb 0.00619996 29.449
rfemur -39.1919 9.53039 26.9286
rtibia 54.9365
rfoot -9.59409 -4.77341
rtoes -23.5279
lfemur -41.252 -6.85681 -16.7493
ltibia 32.0587
lfoot -8.73046 6.72363
ltoes -41.5741
418
root 7.15918 17.7476 16.4834 -158.258 3.57362 -175.797
lowerback -12.6662 -3.5206 -10.1131
upperback -6.15363 -2.53767 -1.8199
thorax 0.976018 -0.690298 3.4219
lowerneck -21.2639 1.80915 7.80697
upperneck 41.1726 3.22827 1.91054
head 19.6803 4.20302 0.785173
rclavicle -1.12313e-014 -3.18055e-015
rhumerus -46.8383 -16.946 -63.085
rradius 25.4383
rwrist 3.73197
rhand -5.20765 -16.7417
rfingers 7.12502
rthumb 20.5939 -45.6693
lclavicle -1.12313e-014 -3.18055e-015
lhumerus -38.5949 -14.4507 82.4719
lradius 28.0875
lwrist 44.2976
lhand -26.8018 -0.466937
lfingers 7.12502
lthumb -0.228702 29.5127
rfemur -40.9034 9.1756 27.1718
rtibia 57.065
rfoot -7.50319 -3.99132
rtoes -22.0802
lfemur -41.4247 -6.91872 -16.5111
ltibia 32.2079
lfoot -8.79639 6.88187
ltoes -41.5949
419
root 7.15403 17.75 16.4647 -158.111 3.4566 -175.63
lowerback -12.4433 -3.55988 -10.2057
upperback -6.11864 -2.61472 -1.83639
thorax 0.905039 -0.729001 3.45112
lowerneck -21.2504 1.80872 7.7938
upperneck 41.1443 3.21632 1.93874
head 19.657 4.19617 0.795362
rclavicle -2.23633e-014 3.18055e-015
rhumerus -46.993 -16.9569 -62.8977
rradius 25.3413
rwrist 4.26106
rhand -4.4735 -16.9395
rfingers 7.12502
rthumb 21.2992 -45.7891
lclavicle -2.23633e-014 3.18055e-015
lhumerus -38.4496 -14.6158 82.4377
lradius 28.2056
lwrist 44.722
lhand -27.0623 -0.396169
lfingers 7.12502
lthumb -0.480263 29.583
rfemur -42.6774 8.86246 27.3642
rtibia 59.2075
rfoot -5.29137 -3.34256
rtoes -19.7592
lfemur -41.5677 -6.98728 -16.3202
ltibia 32.3009
lfoot -8.82743 7.03101
ltoes -41.6285
